<svg width="52" height="52" viewBox="0 0 52 52" fill="none" xmlns="http://www.w3.org/2000/svg">
<circle cx="26" cy="26.4724" r="25.5" fill="#FF334B"/>
<path d="M21.965 34.387V18.5579C21.965 18.5333 21.9698 18.5256 21.9718 18.5224C21.9719 18.5223 21.972 18.5221 21.972 18.522C21.9766 18.5147 21.9884 18.5008 22.0105 18.4886C22.0327 18.4765 22.054 18.4723 22.0692 18.4724C22.0796 18.4725 22.0961 18.474 22.1241 18.4914L34.9241 26.4059C34.9485 26.421 34.9546 26.432 34.9568 26.4362C34.9609 26.4437 34.965 26.4561 34.965 26.4724C34.965 26.4887 34.9609 26.5011 34.9568 26.5087C34.9546 26.5128 34.9485 26.5238 34.9241 26.5389L22.1241 34.4535C22.0961 34.4708 22.0796 34.4723 22.0692 34.4724C22.054 34.4725 22.0327 34.4683 22.0105 34.4562C21.9884 34.444 21.9766 34.4302 21.972 34.4228L21.9718 34.4224C21.9698 34.4193 21.965 34.4116 21.965 34.387Z" stroke="white" stroke-width="3"/>
</svg>
