<svg width="21" height="21" viewBox="0 0 21 21" fill="none" xmlns="http://www.w3.org/2000/svg">
<path fill-rule="evenodd" clip-rule="evenodd" d="M8.80536 16.5097C4.32142 16.5097 0.686462 12.8747 0.686462 8.39078C0.686462 3.90684 4.32142 0.271881 8.80536 0.271881C13.2893 0.271881 16.9243 3.90684 16.9243 8.39078C16.9243 10.267 16.2879 11.9945 15.2191 13.3693L20.6865 18.8366L19.2512 20.2719L13.7839 14.8046C12.4091 15.8733 10.6815 16.5097 8.80536 16.5097ZM14.8945 8.39078C14.8945 11.7537 12.1683 14.48 8.80536 14.48C5.4424 14.48 2.71619 11.7537 2.71619 8.39078C2.71619 5.02782 5.4424 2.30161 8.80536 2.30161C12.1683 2.30161 14.8945 5.02782 14.8945 8.39078Z" fill="white"/>
</svg>
