<svg width="14" height="14" viewBox="0 0 14 14" fill="none" xmlns="http://www.w3.org/2000/svg">
<path fill-rule="evenodd" clip-rule="evenodd" d="M7.08325 13.5834C3.4934 13.5834 0.583252 10.6732 0.583252 7.08337C0.583252 3.49352 3.4934 0.583374 7.08325 0.583374C10.6731 0.583374 13.5833 3.49352 13.5833 7.08337C13.5833 10.6732 10.6731 13.5834 7.08325 13.5834ZM7.08325 12.4016C10.0204 12.4016 12.4014 10.0205 12.4014 7.08337C12.4014 4.14622 10.0204 1.76519 7.08325 1.76519C4.1461 1.76519 1.76507 4.14622 1.76507 7.08337C1.76507 10.0205 4.1461 12.4016 7.08325 12.4016ZM10.0378 6.49247H7.67416V3.53792H6.49234V7.67429H10.0378V6.49247Z" fill="#898F97"/>
</svg>
