<svg width="68" height="27" viewBox="0 0 68 27" fill="none" xmlns="http://www.w3.org/2000/svg">
<path d="M0 4.8636H3.45527L4.12403 6.28472C5.51728 5.18869 6.90125 4.64068 8.27593 4.64068C10.0779 4.64068 11.4061 5.30944 12.2606 6.64696C13.1337 7.98449 13.5703 9.8886 13.5703 12.3593C13.5703 14.9229 13.1709 16.8456 12.3721 18.1274C11.5919 19.3906 10.2265 20.0222 8.27593 20.0222C7.57001 20.0222 6.84552 19.9386 6.10245 19.7714C5.37796 19.6042 4.71849 19.3627 4.12403 19.0469V26.4312H0V4.8636ZM6.9384 16.6227C7.70005 16.6227 8.30379 16.3161 8.74963 15.7031C9.21405 15.0715 9.44626 13.9569 9.44626 12.3593C9.44626 10.7617 9.22334 9.62853 8.7775 8.95977C8.33166 8.291 7.71863 7.95662 6.9384 7.95662C6.00957 7.95662 5.07144 8.23527 4.12403 8.79257V15.8982C4.47699 16.1211 4.90425 16.2976 5.40582 16.4276C5.92597 16.5576 6.43683 16.6227 6.9384 16.6227Z" fill="white"/>
<path d="M22.1238 19.9943C20.1361 19.9943 18.5942 19.4277 17.4982 18.2946C16.4022 17.1614 15.8541 15.2015 15.8541 12.415C15.8541 10.4273 16.0956 8.86688 16.5786 7.7337C17.0616 6.60052 17.7675 5.80172 18.6964 5.33731C19.6252 4.87289 20.8048 4.64068 22.2352 4.64068C24.0372 4.64068 25.7741 4.87289 27.446 5.33731V7.70584H23.517C22.6254 7.70584 21.9287 7.83587 21.4272 8.09595C20.9256 8.35602 20.554 8.82044 20.3125 9.4892C20.0896 10.158 19.9782 11.124 19.9782 12.3872C19.9782 13.6318 20.0896 14.5792 20.3125 15.2294C20.554 15.861 20.9256 16.2976 21.4272 16.5391C21.9287 16.762 22.6439 16.8734 23.5728 16.8734H27.6689V19.2141C26.963 19.437 26.0992 19.6228 25.0775 19.7714C24.0558 19.92 23.0712 19.9943 22.1238 19.9943Z" fill="white"/>
<path d="M33.137 19.9943C31.9853 19.9943 31.0564 19.66 30.3505 18.9912C29.6632 18.3039 29.3195 17.375 29.3195 16.2047V14.8672C29.3195 13.6783 29.7282 12.7308 30.5456 12.0249C31.3815 11.319 32.6169 10.9661 34.2516 10.9661H38.0691V9.93504C38.0691 9.43347 37.9855 9.04336 37.8183 8.76471C37.6512 8.46748 37.3354 8.25385 36.8709 8.12381C36.4065 7.9752 35.7192 7.90089 34.8089 7.90089H30.3226V5.5045C32.1617 4.9472 34.1587 4.66854 36.3136 4.66854C38.2828 4.66854 39.7503 5.04008 40.7163 5.78315C41.7009 6.52622 42.1932 7.8173 42.1932 9.65639V19.8271H38.933L38.2642 18.2388C38.0598 18.4432 37.6976 18.6847 37.1775 18.9633C36.6573 19.242 36.035 19.4835 35.3105 19.6878C34.6046 19.8922 33.8801 19.9943 33.137 19.9943ZM35.2826 17.1242C35.7099 17.1242 36.2393 17.0313 36.8709 16.8456C37.5025 16.6412 37.9019 16.4926 38.0691 16.3997V12.9166L35.5613 13.0838C34.1494 13.1953 33.4435 13.8083 33.4435 14.9229V15.5359C33.4435 16.5948 34.0566 17.1242 35.2826 17.1242Z" fill="white"/>
<path d="M50.7144 19.9943C49.6927 19.9943 48.6153 19.9386 47.4821 19.8271C46.3675 19.6971 45.513 19.5299 44.9185 19.3256V16.9013H51.5504C52.1634 16.9013 52.6 16.8177 52.86 16.6505C53.1201 16.4833 53.2502 16.1582 53.2502 15.6752V15.2015C53.2502 14.8114 53.1201 14.5235 52.86 14.3377C52.6185 14.1334 52.182 14.0312 51.5504 14.0312H49.2097C47.8165 14.0312 46.7112 13.7154 45.8938 13.0838C45.0764 12.4336 44.6677 11.3933 44.6677 9.96291V9.09909C44.6677 7.61295 45.1136 6.51693 46.0052 5.81101C46.9155 5.08652 48.4759 4.72427 50.6866 4.72427C51.5968 4.72427 52.5907 4.79858 53.6681 4.94719C54.7456 5.07723 55.563 5.23513 56.1203 5.4209V7.84516H49.8506C49.2747 7.84516 48.8568 7.93805 48.5967 8.12381C48.3366 8.30958 48.2066 8.63467 48.2066 9.09909V9.54493C48.2066 10.0093 48.3459 10.3252 48.6246 10.4923C48.9032 10.641 49.3676 10.7153 50.0178 10.7153H52.4142C53.9003 10.7153 54.9964 11.0589 55.7023 11.7463C56.4268 12.415 56.789 13.381 56.789 14.6442V15.9818C56.789 17.4493 56.2874 18.4896 55.2843 19.1027C54.2812 19.6971 52.7579 19.9943 50.7144 19.9943Z" fill="white"/>
<path d="M65.0338 19.8271C63.8635 19.8271 62.9254 19.66 62.2194 19.3256C61.5135 18.9912 61.0027 18.4339 60.6869 17.6537C60.3711 16.8734 60.2317 15.8239 60.2689 14.5049L60.4082 8.17954H58.0676V5.53236L60.5475 4.8636L61.1048 0.683838H64.3651V4.8636H67.8761V8.17954H64.3651V14.477C64.3651 15.2201 64.4951 15.7403 64.7552 16.0375C65.0152 16.3347 65.3775 16.5205 65.8419 16.5948L67.7367 16.762V19.8271H65.0338Z" fill="white"/>
</svg>
